<svg width="30" height="30" viewBox="0 0 30 30" fill="none" xmlns="http://www.w3.org/2000/svg">
<path d="M9.375 15.9375C9.375 15.3835 9.80114 15 10.3125 15C10.8239 15 11.25 15.3835 11.25 15.9375C11.25 16.4915 10.8665 16.875 10.3125 16.875C9.75852 16.875 9.375 16.4489 9.375 15.9375Z" fill="#9CA3AF"/>
<path fill-rule="evenodd" clip-rule="evenodd" d="M10.3125 13.125C8.77841 13.125 7.5 14.2756 7.5 15.9375C7.5 17.4716 8.65057 18.75 10.3125 18.75C11.9744 18.75 13.125 17.5994 13.125 15.9375C13.125 14.2756 11.8466 13.125 10.3125 13.125ZM10.3125 14.0625C9.28977 14.0625 8.4375 14.8295 8.4375 15.9375C8.4375 16.9602 9.20455 17.8125 10.3125 17.8125C11.4205 17.8125 12.1875 17.0455 12.1875 15.9375C12.1875 14.8295 11.3352 14.0625 10.3125 14.0625Z" fill="#9CA3AF"/>
<path d="M20.625 15.9375C20.625 15.3835 20.1989 15 19.6875 15C19.1761 15 18.75 15.3835 18.75 15.9375C18.75 16.4915 19.1335 16.875 19.6875 16.875C20.2415 16.875 20.625 16.4489 20.625 15.9375Z" fill="#9CA3AF"/>
<path fill-rule="evenodd" clip-rule="evenodd" d="M19.6875 13.125C21.2216 13.125 22.5 14.2756 22.5 15.9375C22.5 17.4716 21.3494 18.75 19.6875 18.75C18.0256 18.75 16.875 17.5994 16.875 15.9375C16.875 14.2756 18.1534 13.125 19.6875 13.125ZM19.6875 14.0625C20.7102 14.0625 21.5625 14.8295 21.5625 15.9375C21.5625 16.9602 20.7955 17.8125 19.6875 17.8125C18.5795 17.8125 17.8125 17.0455 17.8125 15.9375C17.8125 14.8295 18.6648 14.0625 19.6875 14.0625Z" fill="#9CA3AF"/>
<path fill-rule="evenodd" clip-rule="evenodd" d="M8.4375 11.2348C10.1729 10.1369 12.5917 9.375 15 9.375C17.4083 9.375 19.8271 10.1369 21.5625 11.2348L24.375 11.25L23.3761 13.1119C23.9427 13.8556 24.375 14.9104 24.375 15.9375C24.375 18.5229 22.1719 20.625 19.6573 20.625C18.1698 20.625 16.8229 19.7771 15.9375 18.75L15 20.625L14.0625 18.75C13.1771 19.7771 11.8302 20.625 10.3427 20.625C7.82811 20.625 5.625 18.5229 5.625 15.9375C5.625 14.9104 6.05727 13.8556 6.62394 13.1119L5.625 11.25L8.4375 11.2348ZM15 15.4688C15.1771 13.0958 17.249 11.2854 19.6573 11.25C18.3469 10.6833 16.6646 10.3125 15 10.3125C13.3354 10.3125 11.6531 10.6833 10.3427 11.25C12.751 11.2854 14.8229 13.0958 15 15.4688ZM10.3427 19.7042C8.28852 19.7042 6.5625 17.9917 6.5625 15.9375C6.5625 13.8833 8.28852 12.1556 10.3427 12.1556C12.3969 12.1556 14.0614 13.8833 14.0614 15.9375C14.0614 17.9563 12.3969 19.7042 10.3427 19.7042ZM19.6573 19.7042C21.7115 19.7042 23.4375 17.9917 23.4375 15.9375C23.4375 13.8833 21.7115 12.1556 19.6573 12.1556C17.6031 12.1556 15.9386 13.8833 15.9386 15.9375C15.9386 17.9563 17.6031 19.7042 19.6573 19.7042Z" fill="#9CA3AF"/>
</svg>
